<svg id="Capa_1" enable-background="new 0 0 512 512" height="512" viewBox="0 0 512 512" width="512" xmlns="http://www.w3.org/2000/svg"><g><g><g><path d="m265.676 106.664c.676.129 7.631 1.4 17.056 1.4 13.553 0 32.212-2.629 44.646-15.063 21.082-21.081 13.977-60.055 13.664-61.703-.767-4.038-3.924-7.195-7.962-7.961-1.648-.313-40.621-7.418-61.702 13.664-21.081 21.081-13.977 60.054-13.664 61.703.766 4.036 3.924 7.194 7.962 7.96zm19.845-55.522c8.903-8.903 25.873-9.8 36.73-9.016.782 10.867-.115 27.832-9.016 36.732v.001c-8.89 8.89-25.823 9.793-36.684 9.02-.711-9.8-.445-27.323 8.97-36.737z"/><path d="m249.86 195.893c9.425 0 16.38-1.271 17.056-1.399 4.038-.766 7.195-3.923 7.962-7.961.313-1.648 7.418-40.622-13.663-61.703-21.08-21.082-60.054-13.977-61.703-13.664-4.038.766-7.195 3.924-7.962 7.961-.313 1.649-7.417 40.622 13.664 61.703 12.434 12.435 31.094 15.063 44.646 15.063zm-39.524-65.89c9.804-.712 27.324-.444 36.736 8.969 8.89 8.889 9.795 25.824 9.02 36.684-9.795.71-27.322.446-36.735-8.968 0 0 0 0 0-.001-8.89-8.889-9.796-25.824-9.021-36.684z"/><path d="m506.242 228.933c-2.365-13.694-10.79-25.312-22.728-31.838.5-3.204.579-6.476.224-9.736-1.071-9.835-5.908-18.664-13.62-24.861-7.71-6.197-17.377-9.021-27.21-7.948-1.839.2-3.646.533-5.412.996-9.55-9.224-22.856-13.909-36.277-12.446-12.528 1.365-23.884 8.004-31.31 17.934-7.938-2.353-16.307-3.116-24.626-2.212-17.855 1.945-34.054 11.563-44.373 26.097-16.647.536-30.023 14.245-30.023 31.019 0 4.27.872 8.344 2.447 12.055h-104.389c15.867-21.692 9.747-55.257 9.458-56.785-.767-4.037-3.924-7.195-7.962-7.961-1.648-.313-40.621-7.418-61.703 13.663-1.919 1.919-3.604 3.986-5.081 6.159-1.478-2.173-3.163-4.24-5.082-6.159-21.081-21.081-60.054-13.977-61.703-13.663-4.037.766-7.194 3.923-7.961 7.961-.29 1.527-6.41 35.093 9.457 56.785h-28.368c-5.523 0-10 4.477-10 10v43.926c0 5.523 4.477 10 10 10h11.319v59.668c0 36.12 23.982 66.744 56.858 76.786-4.532 6.384-7.199 14.18-7.199 22.587 0 21.563 17.543 39.106 39.106 39.106s39.106-17.543 39.106-39.106c0-6.935-1.815-13.453-4.993-19.106h223.604c-3.179 5.653-4.993 12.172-4.993 19.106 0 21.563 17.543 39.106 39.106 39.106s39.107-17.543 39.107-39.106c0-8.407-2.667-16.203-7.199-22.587 32.877-10.042 56.858-40.666 56.858-76.786v-59.668h11.32c5.522 0 10-4.477 10-10v-43.929c0-4.006-2.356-7.461-5.758-9.057zm-204.178 53.06c0-.026.001-.051.001-.077v-33.926h97.19v102.073c0 5.256-4.275 9.532-9.531 9.532h-78.128c-5.256 0-9.532-4.276-9.532-9.532zm-.143-77.093h4.455c3.578 0 6.884-1.912 8.668-5.013 6.786-11.794 18.899-19.714 32.404-21.185 7.727-.842 15.517.429 22.524 3.676 2.409 1.116 5.165 1.228 7.659.31 2.493-.918 4.518-2.791 5.629-5.204 3.733-8.116 11.257-13.538 20.123-14.503 8.929-.978 17.772 2.945 23.065 10.225 2.902 3.989 8.279 5.268 12.669 3.008 1.852-.954 3.855-1.554 5.955-1.783 4.521-.491 8.97.806 12.517 3.656 3.548 2.851 5.772 6.912 6.265 11.438.341 3.122-.182 6.264-1.511 9.085-1.252 2.656-1.273 5.727-.058 8.4s3.542 4.677 6.366 5.481c7.521 2.141 13.434 7.527 16.322 14.48l-183.115-.001c-6.051-.032-10.974-4.982-10.974-11.034.002-6.085 4.952-11.036 11.037-11.036zm-179.041-13.85c8.903-8.903 25.875-9.796 36.731-9.017.781 10.868-.115 27.833-9.016 36.733v-.001c-6.971 6.972-18.891 9.034-28.948 9.224h-3.194c-1.615-.03-3.155-.104-4.589-.208-.781-10.866.115-27.831 9.016-36.731zm-66.164 27.716c-8.89-8.89-9.795-25.824-9.02-36.684 9.798-.713 27.322-.445 36.735 8.968 8.902 8.902 9.798 25.873 9.017 36.731-1.451.105-3.011.179-4.646.209h-3.096c-10.069-.185-22.01-2.243-28.99-9.224zm72.475 232.191c0 10.535-8.571 19.106-19.106 19.106s-19.106-8.571-19.106-19.106 8.571-19.106 19.106-19.106 19.106 8.571 19.106 19.106zm272.724 19.106c-10.535 0-19.106-8.571-19.106-19.106s8.571-19.106 19.106-19.106 19.107 8.571 19.107 19.106-8.572 19.106-19.107 19.106zm68.766-118.478c0 33.231-27.035 60.266-60.266 60.266h-308.83c-33.23 0-60.266-27.035-60.266-60.266v-59.668h69.645c5.522 0 10-4.477 10-10s-4.478-10-10-10h-90.964v-23.927h262.064v23.926h-80.687c-5.522 0-10 4.477-10 10s4.478 10 10 10h80.687v58.147c0 16.284 13.248 29.532 29.532 29.532h78.128c16.283 0 29.531-13.248 29.531-29.532v-58.147h51.426zm21.319-79.668h-72.744v-23.927h72.744z"/><path d="m165.59 278.09c-1.637-3.925-5.698-6.455-9.949-6.147-4.152.3-7.748 3.227-8.896 7.225-1.148 4 .381 8.461 3.783 10.878 3.371 2.395 7.924 2.462 11.371.185 3.931-2.597 5.5-7.798 3.691-12.141z"/></g></g></g></svg>