<?xml version="1.0" encoding="iso-8859-1"?>
<!-- Generator: Adobe Illustrator 19.0.0, SVG Export Plug-In . SVG Version: 6.00 Build 0)  -->
<svg version="1.1" id="Capa_1" xmlns="http://www.w3.org/2000/svg" xmlns:xlink="http://www.w3.org/1999/xlink" x="0px" y="0px"
	 viewBox="0 0 512 512" style="enable-background:new 0 0 512 512;" xml:space="preserve">
<g>
	<g>
		<path d="M506.002,183.801l-241-180.8C259.668-1,252.333-1,246.999,3.001l-241,180.8C2.222,186.634,0,191.08,0,195.8
			c0,3.905,0,298.328,0,301.2c0,8.284,6.716,15,15,15c4.596,0,477.421,0,482,0c8.284,0,15-6.716,15-15c0-2.87,0-297.283,0-301.2
			C512,191.08,509.778,186.634,506.002,183.801z M66.454,482H30V272.678l36.454-27.349V482z M290.996,482h-69.991V352h69.991V482z
			 M415.546,482h-94.551V337c0.001-8.284-6.715-15-14.999-15h-99.991c-8.284,0-15,6.716-15,15v145H96.454V222.822L256,103.123
			l159.546,119.699V482z M482,482h-36.454V245.329L482,272.678V482z M482,235.171c-23.609-17.716-194.444-145.879-216.998-162.8
			c-5.334-4.002-12.67-4.002-18.004,0C238.7,78.597,43.062,225.37,30,235.171v-31.872L256,33.752l226,169.547V235.171z"/>
	</g>
</g>
<g>
	<g>
		<path d="M286,175.303h-60c-8.284,0-15,6.716-15,15s6.716,15,15,15h60c8.284,0,15-6.716,15-15S294.284,175.303,286,175.303z"/>
	</g>
</g>
<g>
	<g>
		<path d="M286,241h-60c-8.284,0-15,6.716-15,15s6.716,15,15,15h60c8.284,0,15-6.716,15-15S294.284,241,286,241z"/>
	</g>
</g>
<g>
	<g>
		<path d="M163.729,241h-40c-8.284,0-15,6.716-15,15v180c0,8.284,6.716,15,15,15h40c8.284,0,15-6.716,15-15V256
			C178.729,247.716,172.013,241,163.729,241z M148.729,421h-10V271h10V421z"/>
	</g>
</g>
<g>
	<g>
		<path d="M388.271,241h-40c-8.284,0-15,6.716-15,15v180c0,8.285,6.716,15,15,15h40c8.284,0,15-6.716,15-15V256
			C403.271,247.716,396.555,241,388.271,241z M373.271,421h-10V271h10V421z"/>
	</g>
</g>
<g>
</g>
<g>
</g>
<g>
</g>
<g>
</g>
<g>
</g>
<g>
</g>
<g>
</g>
<g>
</g>
<g>
</g>
<g>
</g>
<g>
</g>
<g>
</g>
<g>
</g>
<g>
</g>
<g>
</g>
</svg>
