<?xml version="1.0" encoding="utf-8"?>
<!-- Generator: Adobe Illustrator 19.0.0, SVG Export Plug-In . SVG Version: 6.00 Build 0)  -->
<svg version="1.1" id="Layer_1" xmlns="http://www.w3.org/2000/svg" xmlns:xlink="http://www.w3.org/1999/xlink" x="0px" y="0px"
	 viewBox="0 0 500 500" style="enable-background:new 0 0 500 500;" xml:space="preserve">
<style type="text/css">
	.st0{fill:#19636A;}
</style>
<g id="XMLID_1_">
	<path id="XMLID_6_" class="st0" d="M95.7,207.6c-1.7-1.2-3.5-1.8-6.6-1.9c-1.4-0.1-2.2-0.1-3.4-0.1c-0.3,0-0.5,0.2-0.5,0.6v19
		c0,5.3,0.2,6.6,2.8,7.7c2.2,0.9,4,1,5.8,1c3.6,0,9.7-1.9,9.7-10.2C103.5,218.5,101.8,211.8,95.7,207.6z M85.2,201.2
		c0,0.6,0.2,0.8,0.6,0.9c0.7,0.2,1.9,0.2,3.8,0.2c2.6,0,4.4-0.3,5.8-1.5c2.1-1.7,3.3-4.6,3.3-8.5c0-5.4-3.1-12.4-10-12.4
		c-1.1,0-1.8,0-2.6,0.2c-0.6,0.2-0.7,0.5-0.7,1.4L85.2,201.2L85.2,201.2z M75.6,199.8c0-12.2,0-14.4-0.2-17c-0.2-2.7-0.8-4-3.4-4.6
		c-0.6-0.2-2-0.2-3.1-0.2c-0.9,0-1.4-0.2-1.4-0.7c0-0.6,0.6-0.7,1.8-0.7c4.2,0,9.3,0.2,10.9,0.2c3.9,0,7-0.2,9.8-0.2
		c14.5,0,17,7.8,17,12c0,6.6-3.8,10.5-8.2,14c6.6,2.2,14.6,7.9,14.6,17.3c0,8.6-6.6,17.4-21.3,17.4c-1,0-3.3-0.2-5.6-0.2
		c-2.4-0.2-4.8-0.2-6-0.2c-0.9,0-2.6,0-4.6,0.1c-1.8,0-3.9,0.2-5.5,0.2c-1,0-1.6-0.2-1.6-0.8c0-0.4,0.3-0.6,1.3-0.6
		c1.2,0,2.2-0.2,2.9-0.3c1.6-0.3,2-2.1,2.3-4.4c0.4-3.4,0.4-9.7,0.4-17L75.6,199.8"/>
	<path id="XMLID_7_" class="st0" d="M124.1,205.3c0-10.3,0.1-12.2-0.1-14.4c-0.2-2.4-0.8-3-3-3.7c-0.6-0.2-1.8-0.2-2.7-0.2
		c-0.8,0-1.2-0.2-1.2-0.7c0-0.5,0.5-0.6,1.5-0.6c3.8,0,8.5,0.2,10.6,0.2c1.8,0,6.5-0.2,9-0.2c1,0,1.5,0.2,1.5,0.6
		c0,0.5-0.4,0.7-1.1,0.7c-0.8,0-1.2,0.1-2.1,0.2c-1.8,0.3-2.4,1.3-2.6,3.7c-0.2,2.2-0.2,4.1-0.2,14.4v9.5c0,9.9,1.9,13.8,5.4,16.5
		c3.1,2.5,6.5,2.7,8.9,2.7c3,0,6.6-0.9,9.4-3.6c3.9-3.7,4.1-9.6,4.1-16.6v-8.6c0-10.3-0.1-12.2-0.2-14.4c-0.2-2.3-0.7-3-3-3.7
		c-0.6-0.2-1.8-0.2-2.6-0.2c-0.8,0-1.2-0.2-1.2-0.7c0-0.5,0.5-0.6,1.4-0.6c3.6,0,8.3,0.2,8.4,0.2c0.8,0,5.5-0.2,8.2-0.2
		c1,0,1.4,0.2,1.4,0.6c0,0.5-0.4,0.7-1.2,0.7c-0.8,0-1.2,0.1-2.1,0.2c-1.9,0.3-2.4,1.3-2.6,3.7c-0.1,2.2-0.2,4.1-0.2,14.4v7.3
		c0,7.6-0.8,15.6-6.7,20.5c-5,4.2-10.3,4.9-14.9,4.9c-3.7,0-11-0.2-16.1-4.6c-3.6-3.1-6.4-8.2-6.4-18L124.1,205.3"/>
	<path id="XMLID_8_" class="st0" d="M180.7,236.2c-1.1-0.5-1.4-0.8-1.4-2.3c0-3.7,0.3-7.9,0.4-9c0-1,0.3-1.8,0.9-1.8
		c0.6,0,0.7,0.6,0.7,1.1c0,0.9,0.2,2.3,0.6,3.5c1.5,5,6.8,6.7,11.2,6.7c6.1,0,9.8-3.8,9.8-8.6c0-3-0.7-5.9-7-9.6l-4.1-2.4
		c-8.3-4.9-11-9.4-11-15.4c0-8.3,8-13.7,17.8-13.7c4.6,0,8.2,0.6,10,1.1c0.6,0.2,1,0.4,1,0.9c0,0.9-0.2,2.8-0.2,8.2
		c0,1.4-0.3,2.2-0.9,2.2c-0.5,0-0.7-0.4-0.7-1.2c0-0.6-0.3-2.7-1.8-4.5c-1-1.3-3.3-3.2-7.8-3.2c-5,0-9.6,2.6-9.6,7.3
		c0,3,1.1,5.4,7.4,9l2.9,1.6c9.3,5.1,12.2,10.3,12.2,16.5c0,5-1.9,9.1-7,12.7c-3.4,2.4-8,2.8-11.8,2.8
		C188.1,238,183.8,237.6,180.7,236.2"/>
	<path id="XMLID_9_" class="st0" d="M222.8,205.3c0-10.3,0-12.2-0.1-14.4c-0.2-2.3-0.9-3.1-2.4-3.6c-0.8-0.2-1.7-0.3-2.6-0.3
		c-0.7,0-1.1-0.2-1.1-0.8c0-0.4,0.6-0.6,1.7-0.6c2.6,0,7.4,0.2,9.4,0.2c1.8,0,6.3-0.2,9-0.2c0.9,0,1.4,0.2,1.4,0.6
		c0,0.6-0.4,0.8-1.1,0.8c-0.7,0-1.3,0.1-2.1,0.2c-1.9,0.3-2.5,1.3-2.6,3.7c-0.2,2.2-0.2,4.1-0.2,14.4v12c0,6.6,0,12,0.3,14.9
		c0.2,1.8,0.7,2.9,2.8,3.2c1,0.2,2.6,0.2,3.6,0.2c0.8,0,1.1,0.4,1.1,0.7c0,0.5-0.6,0.7-1.4,0.7c-4.6,0-9.4-0.2-11.4-0.2
		c-1.6,0-6.4,0.2-9.2,0.2c-0.9,0-1.4-0.2-1.4-0.7c0-0.3,0.2-0.7,1.1-0.7c1,0,1.8-0.1,2.5-0.2c1.4-0.3,1.8-1.3,2.1-3.3
		c0.3-2.8,0.3-8.2,0.3-14.8L222.8,205.3"/>
	<path id="XMLID_10_" class="st0" d="M256.4,227.8c0.2,5.3,1,6.9,2.4,7.4c1.2,0.4,2.6,0.5,3.7,0.5c0.8,0,1.2,0.3,1.2,0.7
		c0,0.6-0.6,0.7-1.6,0.7c-4.6,0-7.8-0.2-9.1-0.2c-0.6,0-4,0.2-7.6,0.2c-1,0-1.6-0.1-1.6-0.7c0-0.4,0.5-0.7,1.1-0.7
		c1,0,2.2-0.1,3.2-0.3c1.8-0.5,2.1-2.3,2.2-8.2l0.6-40.3c0-1.4,0.5-2.3,1.2-2.3c0.9,0,1.8,1,3,2.2c0.9,0.9,11.4,11.7,21.7,21.7
		c4.8,4.7,14.2,14.3,15.2,15.3h0.3l-0.7-30.2c-0.1-4.2-0.7-5.4-2.4-6c-1-0.4-2.7-0.4-3.7-0.4c-0.9,0-1.1-0.3-1.1-0.7
		c0-0.6,0.7-0.6,1.8-0.6c3.7,0,7.4,0.2,9,0.2c0.8,0,3.4-0.2,6.9-0.2c1,0,1.6,0.1,1.6,0.6c0,0.4-0.4,0.7-1.2,0.7
		c-0.7,0-1.3,0-2.2,0.2c-1.9,0.6-2.5,1.8-2.6,5.6l-0.8,42.9c0,1.5-0.6,2.2-1.1,2.2c-1.2,0-2.2-0.7-2.9-1.4
		c-4.4-4.1-13.2-12.5-20.5-19.6c-7.7-7.4-15.1-15.6-16.5-16.8h-0.2L256.4,227.8"/>
	<path id="XMLID_11_" class="st0" d="M315.8,205.3c0-10.3,0-12.2-0.1-14.4c-0.2-2.3-0.8-3-3-3.7c-0.6-0.2-1.8-0.2-2.8-0.2
		c-0.7,0-1.2-0.2-1.2-0.7c0-0.5,0.6-0.6,1.6-0.6c3.7,0,8.2,0.2,10.2,0.2c2.2,0,17.8,0.1,19.2,0c1.3-0.1,2.4-0.3,3-0.4
		c0.4-0.1,0.8-0.3,1.1-0.3c0.4,0,0.5,0.3,0.5,0.6c0,0.5-0.4,1.3-0.6,4.4c-0.1,0.7-0.2,3.7-0.4,4.5c-0.1,0.3-0.2,1.1-0.8,1.1
		c-0.5,0-0.6-0.3-0.6-0.9c0-0.5-0.1-1.7-0.5-2.5c-0.6-1.2-1.1-2.2-4.6-2.5c-1.2-0.2-9.6-0.3-11-0.3c-0.3,0-0.5,0.2-0.5,0.6V207
		c0,0.4,0.1,0.7,0.5,0.7c1.6,0,10.7,0,12.3-0.2c1.7-0.2,2.7-0.3,3.4-1c0.6-0.5,0.8-0.9,1.1-0.9c0.3,0,0.6,0.3,0.6,0.7
		c0,0.4-0.2,1.5-0.6,5c-0.2,1.4-0.3,4.1-0.3,4.6c0,0.6-0.1,1.5-0.7,1.5c-0.5,0-0.6-0.2-0.6-0.6c-0.1-0.7-0.1-1.6-0.2-2.5
		c-0.4-1.4-1.3-2.4-3.9-2.6c-1.3-0.2-9.3-0.3-11-0.3c-0.3,0-0.4,0.3-0.4,0.7v5.4c0,2.3-0.1,8.1,0,10.1c0.2,4.6,2.3,5.7,9.5,5.7
		c1.8,0,4.8-0.1,6.6-0.9c1.8-0.8,2.6-2.2,3-5c0.2-0.7,0.3-1,0.8-1c0.6,0,0.6,0.9,0.6,1.6c0,1.5-0.6,6.2-1,7.5
		c-0.5,1.8-1.1,1.8-3.8,1.8c-5.3,0-9.5-0.1-13-0.2c-3.4-0.1-6.1-0.2-8.2-0.2c-0.8,0-2.3,0.1-4,0.1c-1.7,0.1-3.4,0.2-4.9,0.2
		c-0.9,0-1.4-0.2-1.4-0.7c0-0.3,0.2-0.7,1.1-0.7c1,0,1.8-0.1,2.5-0.2c1.4-0.3,1.8-1.6,2.1-3.6c0.3-2.9,0.3-8.2,0.3-14.5L315.8,205.3
		"/>
	<path id="XMLID_12_" class="st0" d="M354.7,236.2c-1.1-0.5-1.4-0.8-1.4-2.3c0-3.7,0.3-7.9,0.4-9c0-1,0.3-1.8,0.9-1.8
		c0.6,0,0.7,0.6,0.7,1.1c0,0.9,0.2,2.3,0.6,3.5c1.5,5,6.8,6.7,11.2,6.7c6.1,0,9.8-3.8,9.8-8.6c0-3-0.7-5.9-7-9.6l-4.1-2.4
		c-8.3-4.9-11-9.4-11-15.4c0-8.3,8-13.7,17.8-13.7c4.6,0,8.2,0.6,10,1.1c0.6,0.2,1,0.4,1,0.9c0,0.9-0.2,2.8-0.2,8.2
		c0,1.4-0.3,2.2-0.9,2.2c-0.5,0-0.7-0.4-0.7-1.2c0-0.6-0.3-2.7-1.8-4.5c-1-1.3-3.3-3.2-7.8-3.2c-5,0-9.6,2.6-9.6,7.3
		c0,3,1.1,5.4,7.4,9l2.9,1.6c9.3,5.1,12.2,10.3,12.2,16.5c0,5-1.9,9.1-7,12.7c-3.4,2.4-8,2.8-11.8,2.8
		C362.1,238,357.7,237.6,354.7,236.2"/>
	<path id="XMLID_13_" class="st0" d="M394.5,236.2c-1.1-0.5-1.4-0.8-1.4-2.3c0-3.7,0.3-7.9,0.4-9c0-1,0.3-1.8,0.9-1.8
		c0.6,0,0.7,0.6,0.7,1.1c0,0.9,0.2,2.3,0.6,3.5c1.5,5,6.8,6.7,11.2,6.7c6.1,0,9.8-3.8,9.8-8.6c0-3-0.7-5.9-7-9.6l-4.1-2.4
		c-8.3-4.9-11-9.4-11-15.4c0-8.3,8-13.7,17.8-13.7c4.6,0,8.2,0.6,10,1.1c0.6,0.2,1,0.4,1,0.9c0,0.9-0.2,2.8-0.2,8.2
		c0,1.4-0.3,2.2-0.9,2.2c-0.5,0-0.7-0.4-0.7-1.2c0-0.6-0.3-2.7-1.8-4.5c-1-1.3-3.3-3.2-7.8-3.2c-5,0-9.6,2.6-9.6,7.3
		c0,3,1.1,5.4,7.4,9l2.9,1.6c9.3,5.1,12.2,10.3,12.2,16.5c0,5-1.9,9.1-7,12.7c-3.4,2.4-8,2.8-11.8,2.8
		C401.9,238,397.6,237.6,394.5,236.2"/>
	<path id="XMLID_14_" class="st0" d="M78.9,285.2c0-12.2,0-14.4-0.2-17c-0.2-2.7-1-4.1-2.7-4.5c-0.9-0.2-1.9-0.3-2.9-0.3
		c-0.8,0-1.3-0.2-1.3-0.8c0-0.5,0.6-0.6,1.9-0.6c3,0,8.1,0.2,10.4,0.2c2,0,6.7-0.2,9.8-0.2c1,0,1.7,0.2,1.7,0.6
		c0,0.6-0.5,0.8-1.3,0.8c-0.8,0-1.4,0.1-2.4,0.2c-2.2,0.4-2.8,1.8-3,4.6c-0.2,2.6-0.2,4.8-0.2,17v14.1c0,7.8,0,14.1,0.3,17.5
		c0.2,2.2,0.8,3.6,3.2,3.9c1.1,0.2,2.9,0.3,4.1,0.3c0.9,0,1.3,0.2,1.3,0.6c0,0.6-0.6,0.8-1.5,0.8c-5.3,0-10.3-0.2-12.5-0.2
		c-1.8,0-6.9,0.2-10.1,0.2c-1,0-1.6-0.2-1.6-0.8c0-0.4,0.3-0.6,1.3-0.6c1.2,0,2.2-0.2,2.9-0.3c1.6-0.3,2.1-1.7,2.3-4
		c0.4-3.4,0.4-9.7,0.4-17.4L78.9,285.2"/>
	<path id="XMLID_15_" class="st0" d="M119.6,313.2c0.2,5.3,1,6.9,2.4,7.4c1.2,0.4,2.6,0.5,3.7,0.5c0.8,0,1.2,0.3,1.2,0.7
		c0,0.6-0.6,0.7-1.6,0.7c-4.6,0-7.8-0.2-9.1-0.2c-0.6,0-4,0.2-7.6,0.2c-1,0-1.6-0.1-1.6-0.7c0-0.4,0.5-0.7,1.1-0.7
		c1,0,2.2-0.1,3.2-0.3c1.8-0.5,2.1-2.3,2.2-8.2l0.6-40.3c0-1.4,0.5-2.3,1.2-2.3c0.9,0,1.8,1,3,2.2c0.9,0.9,11.4,11.7,21.7,21.7
		c4.8,4.7,14.2,14.3,15.2,15.3h0.3l-0.7-30.2c-0.1-4.2-0.7-5.4-2.4-6c-1-0.4-2.7-0.4-3.7-0.4c-0.9,0-1.1-0.3-1.1-0.7
		c0-0.6,0.7-0.6,1.8-0.6c3.7,0,7.4,0.2,9,0.2c0.8,0,3.4-0.2,6.9-0.2c1,0,1.6,0.1,1.6,0.6c0,0.4-0.4,0.7-1.2,0.7
		c-0.7,0-1.3,0-2.2,0.2c-1.9,0.6-2.5,1.8-2.6,5.6l-0.8,42.9c0,1.5-0.6,2.2-1.1,2.2c-1.2,0-2.2-0.7-2.9-1.4
		c-4.4-4.1-13.2-12.5-20.5-19.6c-7.7-7.4-15.1-15.6-16.5-16.8h-0.2L119.6,313.2"/>
	<path id="XMLID_16_" class="st0" d="M181.9,321.6c-1.1-0.5-1.4-0.8-1.4-2.3c0-3.7,0.3-7.9,0.4-9c0-1,0.3-1.8,0.9-1.8
		c0.6,0,0.7,0.6,0.7,1.1c0,0.9,0.2,2.3,0.6,3.5c1.5,5,6.8,6.7,11.2,6.7c6.1,0,9.8-3.8,9.8-8.6c0-3-0.7-5.9-7-9.6l-4.1-2.4
		c-8.3-4.9-11-9.4-11-15.4c0-8.3,8-13.7,17.8-13.7c4.6,0,8.2,0.6,10,1.1c0.6,0.2,1,0.4,1,0.9c0,0.9-0.2,2.8-0.2,8.2
		c0,1.4-0.3,2.2-0.9,2.2c-0.5,0-0.7-0.4-0.7-1.2c0-0.6-0.3-2.7-1.8-4.5c-1-1.3-3.3-3.2-7.8-3.2c-5,0-9.6,2.6-9.6,7.3
		c0,3,1.1,5.4,7.4,9l2.9,1.6c9.3,5.1,12.2,10.3,12.2,16.5c0,5-1.9,9.1-7,12.7c-3.4,2.4-8,2.8-11.8,2.8
		C189.3,323.4,185,323,181.9,321.6"/>
	<path id="XMLID_17_" class="st0" d="M230.7,290.7c0-10.3,0-12.2-0.1-14.4c-0.2-2.3-0.9-3.1-2.4-3.6c-0.8-0.2-1.7-0.3-2.6-0.3
		c-0.7,0-1.1-0.2-1.1-0.8c0-0.4,0.6-0.6,1.7-0.6c2.6,0,7.4,0.2,9.4,0.2c1.8,0,6.3-0.2,9-0.2c0.9,0,1.4,0.2,1.4,0.6
		c0,0.6-0.4,0.8-1.1,0.8c-0.7,0-1.3,0.1-2.1,0.2c-1.9,0.3-2.5,1.3-2.6,3.7c-0.2,2.2-0.2,4.1-0.2,14.4v12c0,6.6,0,12,0.3,14.9
		c0.2,1.8,0.7,2.9,2.8,3.2c1,0.2,2.6,0.2,3.6,0.2c0.8,0,1.1,0.4,1.1,0.7c0,0.5-0.6,0.7-1.4,0.7c-4.6,0-9.4-0.2-11.4-0.2
		c-1.6,0-6.4,0.2-9.2,0.2c-0.9,0-1.4-0.2-1.4-0.7c0-0.3,0.2-0.7,1.1-0.7c1,0,1.8-0.1,2.5-0.2c1.4-0.3,1.8-1.3,2.1-3.3
		c0.3-2.8,0.3-8.2,0.3-14.8L230.7,290.7"/>
	<path id="XMLID_20_" class="st0" d="M276,298.3c0,7.2,0.1,12.4,0.2,13.8c0.1,1.7,0.2,4.1,0.8,4.8c0.9,1.3,3.7,2.7,9.2,2.7
		c6.4,0,11.1-1.1,15.4-4.6c4.6-3.8,6-9.8,6-16.9c0-8.6-3.4-14.2-6.6-17c-6.5-5.8-14.2-6.5-19.7-6.5c-1.4,0-3.8,0.2-4.3,0.5
		c-0.6,0.2-0.9,0.6-0.9,1.4c-0.1,2.3-0.1,7.9-0.1,13.3L276,298.3L276,298.3z M266.6,290.7c0-10.3,0-12.2-0.1-14.4
		c-0.2-2.3-0.8-3-3-3.7c-0.6-0.2-1.8-0.2-2.8-0.2c-0.7,0-1.2-0.2-1.2-0.7c0-0.5,0.6-0.6,1.6-0.6c3.7,0,8.2,0.2,10.2,0.2
		c2.2,0,7.2-0.2,11.4-0.2c8.8,0,20.6,0,28.3,7.8c3.5,3.5,6.6,9.2,6.6,17.3c0,8.6-3.7,15-7.7,19c-3.2,3.2-10.6,8-23.6,8
		c-2.6,0-5.6-0.2-8.4-0.4c-2.8-0.2-5.4-0.4-7.1-0.4c-0.8,0-2.3,0.1-4,0.1c-1.7,0.1-3.4,0.2-4.9,0.2c-0.9,0-1.4-0.2-1.4-0.7
		c0-0.3,0.2-0.7,1.1-0.7c1,0,1.8-0.1,2.5-0.2c1.4-0.3,1.8-1.6,2.1-3.6c0.3-2.9,0.3-8.2,0.3-14.5L266.6,290.7"/>
	<path id="XMLID_21_" class="st0" d="M335.6,290.7c0-10.3,0-12.2-0.1-14.4c-0.2-2.3-0.8-3-3-3.7c-0.6-0.2-1.8-0.2-2.8-0.2
		c-0.7,0-1.2-0.2-1.2-0.7c0-0.5,0.6-0.6,1.6-0.6c3.7,0,8.2,0.2,10.2,0.2c2.2,0,17.8,0.1,19.2,0c1.3-0.1,2.4-0.3,3-0.4
		c0.4-0.1,0.8-0.3,1.1-0.3c0.4,0,0.5,0.3,0.5,0.6c0,0.5-0.4,1.3-0.6,4.4c-0.1,0.7-0.2,3.7-0.4,4.5c-0.1,0.3-0.2,1.1-0.8,1.1
		c-0.5,0-0.6-0.3-0.6-0.9c0-0.5-0.1-1.7-0.5-2.5c-0.6-1.2-1.1-2.2-4.6-2.5c-1.2-0.2-9.6-0.3-11-0.3c-0.3,0-0.5,0.2-0.5,0.6v16.8
		c0,0.4,0.1,0.7,0.5,0.7c1.6,0,10.7,0,12.3-0.2c1.7-0.2,2.7-0.3,3.4-1c0.6-0.5,0.8-0.9,1.1-0.9c0.3,0,0.6,0.3,0.6,0.7
		c0,0.4-0.2,1.5-0.6,5c-0.2,1.4-0.3,4.1-0.3,4.6c0,0.6-0.1,1.5-0.7,1.5c-0.5,0-0.6-0.2-0.6-0.6c-0.1-0.7-0.1-1.6-0.2-2.5
		c-0.4-1.4-1.3-2.4-3.9-2.6c-1.3-0.2-9.3-0.3-11-0.3c-0.3,0-0.4,0.3-0.4,0.7v5.4c0,2.3-0.1,8.1,0,10.1c0.2,4.6,2.3,5.7,9.5,5.7
		c1.8,0,4.8-0.1,6.6-0.9c1.8-0.8,2.6-2.2,3-5c0.2-0.7,0.3-1,0.8-1c0.6,0,0.6,0.9,0.6,1.6c0,1.5-0.6,6.2-1,7.5
		c-0.5,1.8-1.1,1.8-3.8,1.8c-5.3,0-9.5-0.1-13-0.2c-3.4-0.1-6.1-0.2-8.2-0.2c-0.8,0-2.3,0.1-4,0.1c-1.7,0.1-3.4,0.2-4.9,0.2
		c-0.9,0-1.4-0.2-1.4-0.7c0-0.3,0.2-0.7,1.1-0.7c1,0,1.8-0.1,2.5-0.2c1.4-0.3,1.8-1.6,2.1-3.6c0.3-2.9,0.3-8.2,0.3-14.5L335.6,290.7
		"/>
	<path id="XMLID_24_" class="st0" d="M392.4,296c0,0.7,0.2,1,0.6,1.2c1.5,0.5,3.6,0.6,5.4,0.6c2.8,0,3.8-0.2,5-1.1
		c2.2-1.5,4.6-4.5,4.6-10.1c0-9.6-6.6-12.1-10.7-12.1c-1.8,0-3.4,0.1-4.2,0.2c-0.5,0.2-0.6,0.4-0.6,1V296z M383.4,290.7
		c0-10.3,0-12.2-0.1-14.4c-0.2-2.3-0.8-3-3-3.7c-0.6-0.2-1.8-0.2-2.8-0.2c-0.7,0-1.2-0.2-1.2-0.7c0-0.5,0.6-0.6,1.6-0.6
		c3.7,0,8.2,0.2,9.6,0.2c2.4,0,8.8-0.2,11-0.2c4.5,0,9.6,0.4,13.4,2.9c2,1.4,5,4.8,5,9.4c0,5-2.9,9.5-9.8,15
		c6.2,7.7,11.2,13.8,15.4,18.1c3.9,3.9,6.4,4.2,7.5,4.5c0.7,0.2,1.1,0.2,1.7,0.2c0.6,0,0.9,0.4,0.9,0.7c0,0.6-0.5,0.7-1.4,0.7h-6.7
		c-3.9,0-5.8-0.4-7.7-1.4c-3-1.5-5.7-4.7-9.6-10c-2.8-3.7-5.8-8.2-6.6-9.3c-0.4-0.4-0.8-0.5-1.3-0.5l-6.3-0.2
		c-0.3,0-0.6,0.2-0.6,0.6v1c0,6.3,0.1,11.6,0.4,14.5c0.2,2,0.6,3.3,2.7,3.6c1,0.2,2.6,0.2,3.4,0.2c0.6,0,0.9,0.4,0.9,0.7
		c0,0.5-0.6,0.7-1.4,0.7c-4.1,0-9.9-0.2-11-0.2c-1.4,0-5.8,0.2-8.6,0.2c-0.9,0-1.4-0.2-1.4-0.7c0-0.3,0.2-0.7,1.1-0.7
		c1,0,1.8-0.1,2.5-0.2c1.4-0.3,1.8-1.6,2.1-3.6c0.3-2.9,0.3-8.2,0.3-14.5L383.4,290.7"/>
</g>
</svg>
