<?xml version="1.0" encoding="iso-8859-1"?>
<!-- Generator: Adobe Illustrator 19.0.0, SVG Export Plug-In . SVG Version: 6.00 Build 0)  -->
<svg version="1.1" id="Capa_1" xmlns="http://www.w3.org/2000/svg" xmlns:xlink="http://www.w3.org/1999/xlink" x="0px" y="0px"
	 viewBox="0 0 512 512" style="enable-background:new 0 0 512 512;" xml:space="preserve">
<g>
	<g>
		<path d="M221.091,267.636H104.727c-6.423,0-11.636,5.213-11.636,11.636v197.818H69.818V209.455
			c0-6.423-5.213-11.636-11.636-11.636s-11.636,5.213-11.636,11.636v279.273c0,6.423,5.213,11.636,11.636,11.636h162.909
			c6.423,0,11.636-5.213,11.636-11.636V279.273C232.727,272.849,227.514,267.636,221.091,267.636z M209.455,477.091h-93.091V290.909
			h93.091V477.091z"/>
	</g>
</g>
<g>
	<g>
		<path d="M302.545,267.636h-34.909c-6.423,0-11.636,5.213-11.636,11.636V384c0,6.423,5.213,11.636,11.636,11.636
			s11.636-5.213,11.636-11.636v-93.091h23.273c6.423,0,11.636-5.213,11.636-11.636C314.182,272.849,308.969,267.636,302.545,267.636
			z"/>
	</g>
</g>
<g>
	<g>
		<circle cx="186.182" cy="384" r="11.636"/>
	</g>
</g>
<g>
	<g>
		<path d="M256,93.091c-32.081,0-58.182,26.1-58.182,58.182c0,32.081,26.1,58.182,58.182,58.182c32.081,0,58.182-26.1,58.182-58.182
			C314.182,119.191,288.081,93.091,256,93.091z M256,186.182c-15.151,0-27.951-9.763-32.768-23.273h65.524
			C283.951,176.419,271.151,186.182,256,186.182z M223.244,139.636c4.806-13.51,17.606-23.273,32.756-23.273
			c15.151,0,27.951,9.763,32.768,23.273H223.244z"/>
	</g>
</g>
<g>
	<g>
		<path d="M485.527,151.028l-32.14-20.887c0.14-0.721,0.431-1.385,0.431-2.141V34.909c6.423,0,11.636-5.213,11.636-11.636
			s-5.213-11.636-11.636-11.636h-11.636h-46.545H384c-6.423,0-11.636,5.213-11.636,11.636S377.577,34.909,384,34.909v34.909
			c0,6.423,5.213,11.636,11.636,11.636c6.423,0,11.636-5.213,11.636-11.636V34.909h23.273v80.372l-146.816-95.43
			c-16.559-10.752-38.889-10.752-55.459,0L26.473,151.028C9.903,161.804,0,180.038,0,199.808v9.647
			c0,6.423,5.213,11.636,11.636,11.636s11.636-5.213,11.636-11.636v-9.647c0-11.869,5.935-22.807,15.884-29.277L240.943,39.377
			c8.995-5.841,21.12-5.83,30.103,0l201.798,131.165c9.391,6.097,15.197,16.198,15.825,27.287h-34.851
			c-6.423,0-11.636,5.213-11.636,11.636s5.213,11.636,11.636,11.636h46.545c6.423,0,11.636-5.213,11.636-11.636v-9.647
			C512,180.038,502.097,161.804,485.527,151.028z"/>
	</g>
</g>
<g>
	<g>
		<path d="M450.409,329.228L415.5,294.319c-4.55-4.55-11.904-4.55-16.454,0c-4.55,4.55-4.55,11.904,0,16.454l34.909,34.909
			c2.269,2.269,5.248,3.409,8.227,3.409c2.979,0,5.958-1.14,8.227-3.409C454.959,341.132,454.959,333.777,450.409,329.228z"/>
	</g>
</g>
<g>
	<g>
		<path d="M500.364,309.364l-65.001-65.001c-14.999-15.011-41.181-15.011-56.18,0l-30.092,30.092
			c-7.505,7.505-11.636,17.478-11.636,28.09s4.131,20.596,11.636,28.09l6.819,6.819L247.773,445.591
			c-2.188,2.176-3.409,5.143-3.409,8.227v34.909c0,6.423,5.213,11.636,11.636,11.636h34.909c3.084,0,6.051-1.222,8.227-3.409
			l11.636-11.636c2.188-2.176,3.409-5.143,3.409-8.227v-11.636h11.636c3.084,0,6.051-1.222,8.227-3.409l11.636-11.636
			c2.188-2.176,3.409-5.143,3.409-8.227v-11.636h11.636c3.084,0,6.051-1.222,8.227-3.409l38.319-38.319l6.819,6.819
			c14.999,15.011,41.181,15.011,56.18,0l30.092-30.092c7.505-7.505,11.636-17.478,11.636-28.09
			C512,326.842,507.869,316.858,500.364,309.364z M483.91,349.091l-30.092,30.092c-6.121,6.121-17.152,6.121-23.273,0L415.5,364.137
			c-4.55-4.55-11.904-4.55-16.454,0l-43.136,43.136h-18.455c-6.423,0-11.636,5.213-11.636,11.636v18.455l-4.817,4.817h-18.455
			c-6.423,0-11.636,5.213-11.636,11.636v18.455l-4.817,4.818h-18.455v-18.455l104.727-104.727l3.409,3.409
			c2.269,2.269,5.248,3.409,8.227,3.409c2.979,0,5.958-1.14,8.227-3.409c4.55-4.55,4.55-11.904,0-16.454l-26.682-26.682
			c-3.06-3.06-4.817-7.308-4.817-11.636s1.757-8.576,4.817-11.636l30.092-30.092c6.121-6.121,17.152-6.121,23.273,0l65.001,65.001
			c3.06,3.06,4.818,7.308,4.818,11.636C488.727,341.783,486.97,346.031,483.91,349.091z"/>
	</g>
</g>
<g>
	<g>
		<path d="M453.818,442.182c-6.423,0-11.636,5.213-11.636,11.636v23.273h-93.091c-6.423,0-11.636,5.213-11.636,11.636
			c0,6.423,5.213,11.636,11.636,11.636h104.727c6.423,0,11.636-5.213,11.636-11.636v-34.909
			C465.455,447.395,460.241,442.182,453.818,442.182z"/>
	</g>
</g>
<g>
</g>
<g>
</g>
<g>
</g>
<g>
</g>
<g>
</g>
<g>
</g>
<g>
</g>
<g>
</g>
<g>
</g>
<g>
</g>
<g>
</g>
<g>
</g>
<g>
</g>
<g>
</g>
<g>
</g>
</svg>
