<?xml version="1.0" encoding="utf-8"?>
<!-- Generator: Adobe Illustrator 19.0.0, SVG Export Plug-In . SVG Version: 6.00 Build 0)  -->
<svg version="1.1" id="Layer_1" xmlns="http://www.w3.org/2000/svg" xmlns:xlink="http://www.w3.org/1999/xlink" x="0px" y="0px"
	 viewBox="0 0 500 500" style="enable-background:new 0 0 500 500;" xml:space="preserve">
<style type="text/css">
	.st0{fill:#FFFFFF;}
	.st1{fill:#5F53AE;}
	.st2{fill:#C81A46;}
	.st3{fill:#0E88D3;}
	.st4{fill:#F25C19;}
	.st5{fill:#33B540;}
	.st6{fill:#FAB20B;}
	.st7{fill:#979FA1;}
	.st8{fill:#F6BD35;}
</style>
<g id="XMLID_1_">
	<path id="XMLID_3_" class="st0" d="M112.5,222.5c1.2-2,3.3-4.1,5.5-5c3.8-1.7,8.9-1,12.1,1.7c3,2.7,4.6,6.5,3.8,10.6
		c0.7-0.1,1.5-0.6,2.3-0.9c4.7-1.3,9.6,0.1,12.6,4.1c2.3,2.9,2.8,7.3,1.5,10.7c-0.7,1.7-1.8,3.3-3.3,4.6l0.2,0.1
		c4.4,0.2,8.6,3.6,10,7.7c1.4,4.2,0.2,8.6-2.9,11.7c-2.5,2.5-5.7,3.3-9.3,3.2H80.1c-5.3,0.1-9.5-2.2-11.7-7
		c-1.7-4.1-0.9-9.2,2.4-12.3c2-2.1,4.6-3,7.4-3.5c-3.1-2.9-4.6-6.9-3.8-11.1c0.6-3.4,3.6-6.9,7-8.1c3-1.2,7-1,9.8,0.6l0.1-0.1
		c-0.8-4.7,1.3-8.9,5.2-11.5c3.5-2.3,9-2.3,12.5,0.2C110.3,219.5,111.6,221.1,112.5,222.5"/>
	<path id="XMLID_4_" class="st1" d="M130.9,224.3c1.4,2.8,0.6,6.5-0.9,9l-11.3,25.3l-0.1,0.1l-4.1-25.6c-0.3-2.5,2.3-3.5,3.9-4.7
		c-0.1-0.4-0.5-0.3-0.7-0.5l-3.8,0l-0.1-0.1c0-3.2,1.7-6.1,4.6-7.7c3-1.8,7.3-1.3,10,1C129.4,221.9,130.4,223.1,130.9,224.3"/>
	<path id="XMLID_5_" class="st2" d="M110.1,223.4c0.9,1.7,1.5,3.6,1.1,5.8l-4.6,29.3c0,0,0,0.1-0.1,0.1l-1.2-2.4l-11.5-25.6
		c-1.1-3.3-0.1-6.7,2.3-9.1c2.4-2.5,6.4-3.1,9.6-1.8C107.5,220.4,109.1,221.8,110.1,223.4"/>
	<path id="XMLID_6_" class="st3" d="M147.5,235.8c1.5,2.6,1.2,6.6-0.5,9.1c-1.1,1.7-2.8,2.6-4.3,3.7l-23.8,16.3h-0.1l0.3-0.8
		l12.6-28.4c1.9-3.4,5.5-5.1,9.3-4.5C143.7,231.6,146.3,233.3,147.5,235.8"/>
	<path id="XMLID_7_" class="st4" d="M93.4,235.6l13.2,29.2h-0.2l-26.5-18.2c-2.7-2.3-3.8-5.7-2.9-9.1c0.7-2.6,2.8-5,5.4-5.9
		C86.4,230.1,91.1,231.7,93.4,235.6"/>
	<path id="XMLID_8_" class="st5" d="M154.5,256.4c1.3,2.8,0.8,6.6-1.1,9c-1.9,2.3-4.4,3.5-7.3,3.4l-28.3,0l23.7-16.4
		c2.3-1.5,5.8-1.8,8.4-0.6C151.8,252.6,153.6,254.5,154.5,256.4"/>
	<path id="XMLID_9_" class="st6" d="M70.7,256.4c-1.3,2.8-0.8,6.6,1.1,9c1.9,2.3,4.4,3.5,7.3,3.4l28.3,0l-23.7-16.4
		c-2.3-1.5-5.8-1.8-8.4-0.6C73.4,252.6,71.6,254.5,70.7,256.4"/>
	<path id="XMLID_10_" class="st0" d="M112.5,222.5c1.2-2,3.3-4.1,5.5-5c3.8-1.7,8.9-1,12.1,1.7c3,2.7,4.6,6.5,3.8,10.6
		c0.7-0.1,1.5-0.6,2.3-0.9c4.7-1.3,9.6,0.1,12.6,4.1c2.3,2.9,2.8,7.3,1.5,10.7c-0.7,1.7-1.8,3.3-3.3,4.6l0.2,0.1
		c4.4,0.2,8.6,3.6,10,7.7c1.4,4.2,0.2,8.6-2.9,11.7c-2.5,2.5-5.7,3.3-9.3,3.2H80.1c-5.3,0.1-9.5-2.2-11.7-7
		c-1.7-4.1-0.9-9.2,2.4-12.3c2-2.1,4.6-3,7.4-3.5c-3.1-2.9-4.6-6.9-3.8-11.1c0.6-3.4,3.6-6.9,7-8.1c3-1.2,7-1,9.8,0.6l0.1-0.1
		c-0.8-4.7,1.3-8.9,5.2-11.5c3.5-2.3,9-2.3,12.5,0.2C110.3,219.5,111.6,221.1,112.5,222.5"/>
	<path id="XMLID_11_" class="st1" d="M130.9,224.3c1.4,2.8,0.6,6.5-0.9,9l-11.3,25.3l-0.1,0.1l-4.1-25.6c-0.3-2.5,2.3-3.5,3.9-4.7
		c-0.1-0.4-0.5-0.3-0.7-0.5l-3.8,0l-0.1-0.1c0-3.2,1.7-6.1,4.6-7.7c3-1.8,7.3-1.3,10,1C129.4,221.9,130.4,223.1,130.9,224.3"/>
	<path id="XMLID_12_" class="st2" d="M110.1,223.4c0.9,1.7,1.5,3.6,1.1,5.8l-4.6,29.3c0,0,0,0.1-0.1,0.1l-1.2-2.4l-11.5-25.6
		c-1.1-3.3-0.1-6.7,2.3-9.1c2.4-2.5,6.4-3.1,9.6-1.8C107.5,220.4,109.1,221.8,110.1,223.4"/>
	<path id="XMLID_13_" class="st3" d="M147.5,235.8c1.5,2.6,1.2,6.6-0.5,9.1c-1.1,1.7-2.8,2.6-4.3,3.7l-23.8,16.3h-0.1l0.3-0.8
		l12.6-28.4c1.9-3.4,5.5-5.1,9.3-4.5C143.7,231.6,146.3,233.3,147.5,235.8"/>
	<path id="XMLID_14_" class="st4" d="M93.4,235.6l13.2,29.2h-0.2l-26.5-18.2c-2.7-2.3-3.8-5.7-2.9-9.1c0.7-2.6,2.8-5,5.4-5.9
		C86.4,230.1,91.1,231.7,93.4,235.6"/>
	<path id="XMLID_15_" class="st5" d="M154.5,256.4c1.3,2.8,0.8,6.6-1.1,9c-1.9,2.3-4.4,3.5-7.3,3.4l-28.3,0l23.7-16.4
		c2.3-1.5,5.8-1.8,8.4-0.6C151.8,252.6,153.6,254.5,154.5,256.4"/>
	<path id="XMLID_16_" class="st6" d="M70.7,256.4c-1.3,2.8-0.8,6.6,1.1,9c1.9,2.3,4.4,3.5,7.3,3.4l28.3,0l-23.7-16.4
		c-2.3-1.5-5.8-1.8-8.4-0.6C73.4,252.6,71.6,254.5,70.7,256.4"/>
	<polygon id="XMLID_17_" class="st7" points="163.2,220.1 174.9,220.2 201.9,251.4 201.9,220.1 213.6,220.1 213.6,270.1 
		203.3,270.1 175.3,238.5 175.3,270.1 163.2,270.1 	"/>
	<path id="XMLID_18_" class="st7" d="M420.7,219.9v31.4l-26.9-31.3c-0.1,0-0.1,0-0.1,0c-0.1,0-0.2,0-0.3,0l-3.9,0
		c1.1,1.6,1.7,3.9,1.7,5.8c0.1,3.1-2.6,6.8-9.1,10v15.5c2.6,0.8,4.4,3.1,4.5,6v0.4c-0.1,2.9-2,5.3-4.5,6.1v6.3h12.2v-31.7l27.9,31.7
		h10.4v-50.2H420.7z"/>
	<path id="XMLID_22_" class="st7" d="M217.4,220.1v50H249c20.1-1.1,22.5-20.5,6.5-26.1c7.2-3.8,14.1-18.5-7.1-24H217.4z
		 M229.6,229.7h15.6c8.5,2.3,5.9,10.2,0,11.1h-15.7L229.6,229.7L229.6,229.7z M229.6,249.3h15.9c8.6,2.4,6,10.7,0,11.7h-15.9
		L229.6,249.3L229.6,249.3z"/>
	<path id="XMLID_23_" class="st7" d="M318.6,227.1l-7.7,7.9c-8.7-7.6-20.4-8-27.4-0.2c-5.5,7.5-5.2,14.6,0,21.1
		c8.2,7.9,19.4,6.3,27.9-0.5l7.7,7c-14.1,11.3-30.5,12.8-45.9,0c-9.2-10.6-9.4-21.9-0.2-33.7C284.5,215.5,307.5,216.7,318.6,227.1
		L318.6,227.1z"/>
	<path id="XMLID_26_" class="st8" d="M371.4,212.2c-3.3,0-6.6,0.5-9.9,0.7h-0.1c-20.8,1.1-41.4,13.6-46,21.5
		c-1.9,4.2-4,11.3,4.5,15.5v0c6.1,3.3,13.8,3.1,21.5,3c7.8,0.3,15.5,0.2,23.3,2.6l0.9,0.3c-14.5,4.6-31.3,12.5-39.6,21.1
		c-1.9,2.9-2.2,6,2.5,9.9c14,4.1,27.6-4.8,39.2-15.4c3.1-3,6.2-5.9,6.1-14.5l-0.1-0.6l0,0.1c2-0.1,4.6-0.5,7,1.1
		c0.2,0.5,0.5,0.9,0.2,1.9c-0.1,0.3-1.9,1.8-2.1,1.8c0.1,0.4-0.2,0.9,1,1c1.2-0.4,1.8-0.8,3.3-1.9c2.3-1.5,1.6-3,1-4.7
		c-1.4-1.5-3.1-2.5-5.8-2.6c-1.6,0-3.5,0.3-5.8,1l0,0c-0.3,0.1-0.6,0.1-0.8,0.2c-5.5-5.3-15.9-6.1-26.6-6.6
		c-9.2-0.6-16.5,0.1-24.5-2.9v-0.1c-2.9-7.1,25.3-21.2,40.9-22.3v0c0.3,0,0.6-0.1,0.9-0.1c0.2,0,0.3,0,0.5,0v0
		c6-0.6,16.1-1.8,21,1.6c-2.4,2.8-9,5.8-13.6,8.8v0l-6.6,3.2c-0.9,0.6-3.3,1.1-1.5,1.8c2.8,0.9,6.3,0.4,9.5-0.4l0,0
		c5-1.1,10.5-3.8,15.6-7.5c1.6-1.7,2.4-5.8-0.4-10.6C382.2,213.4,376.9,212.2,371.4,212.2L371.4,212.2z M368.5,257.8
		c0.2,0.4,0.4,0.9,0.1,1.5c-6.8,10.7-24,19.9-39,21.8c-1.9-0.5-1.6-1.7-0.2-3.1C339.1,269.4,358.1,260.3,368.5,257.8z"/>
</g>
</svg>
